<?xml version="1.0" standalone="no"?>
<!DOCTYPE svg PUBLIC "-//W3C//DTD SVG 20010904//EN"
 "http://www.w3.org/TR/2001/REC-SVG-20010904/DTD/svg10.dtd">
<svg version="1.0" xmlns="http://www.w3.org/2000/svg"
 width="500.000000pt" height="500.000000pt" viewBox="0 0 500.000000 500.000000"
 preserveAspectRatio="xMidYMid meet">

<g transform="translate(0.000000,500.000000) scale(0.100000,-0.100000)"
fill="#000000" stroke="none">
<path d="M2780 4268 c0 -6 -13 -55 -30 -107 -63 -204 -81 -274 -73 -282 7 -7
113 -38 208 -61 130 -31 255 69 255 204 0 109 -58 167 -222 221 -124 40 -138
43 -138 25z m148 -108 c24 -6 59 -26 79 -43 32 -30 35 -37 35 -87 -1 -63 -21
-96 -75 -123 -36 -18 -41 -18 -112 -2 -41 9 -75 19 -75 22 0 3 17 61 37 129
29 96 41 123 53 120 8 -3 34 -10 58 -16z"/>
<path d="M1953 4187 c-35 -11 -39 -21 -23 -61 8 -23 7 -26 -15 -32 -14 -3 -25
-7 -25 -9 0 -1 5 -16 10 -32 9 -24 15 -29 35 -25 21 4 25 -1 35 -39 32 -119
71 -169 132 -169 28 0 108 36 108 48 0 5 -10 18 -23 30 -17 16 -26 19 -34 11
-6 -6 -21 -9 -34 -7 -20 2 -28 15 -47 72 -13 38 -21 75 -18 81 2 7 18 16 35
20 27 6 30 10 25 33 -9 39 -17 44 -48 32 -39 -15 -42 -13 -52 22 -11 37 -18
39 -61 25z"/>
<path d="M1769 4036 c-76 -24 -139 -86 -139 -136 0 -12 8 -35 17 -51 24 -40
67 -46 145 -20 55 19 64 19 77 6 13 -13 13 -17 -3 -34 -19 -20 -95 -51 -128
-51 -14 0 -18 -8 -18 -35 0 -31 3 -35 25 -35 13 0 50 10 82 21 115 43 167 136
108 194 -29 30 -55 31 -141 8 -68 -18 -91 -12 -78 21 8 21 48 42 97 51 37 7
45 22 31 59 -7 18 -24 19 -75 2z"/>
<path d="M1386 3968 c-20 -28 -20 -43 0 -62 33 -33 94 -7 94 40 0 46 -67 62
-94 22z"/>
<path d="M3226 3968 c-10 -39 -7 -44 37 -55 68 -19 110 -67 88 -101 -6 -10
-22 -5 -73 22 -77 43 -115 45 -152 11 -29 -27 -36 -88 -13 -118 25 -33 81 -67
113 -67 24 0 31 -4 30 -17 0 -9 13 -25 31 -35 l32 -19 56 85 c64 97 80 136 71
171 -11 44 -73 103 -132 125 -69 25 -80 25 -88 -2z m59 -195 c27 -20 31 -33
13 -51 -19 -19 -70 -14 -95 10 -59 55 13 91 82 41z"/>
<path d="M2388 3969 c-24 -13 -23 -61 0 -82 50 -46 114 13 82 74 -12 21 -53
25 -82 8z"/>
<path d="M1491 3863 c-18 -14 -30 -31 -27 -38 6 -18 153 -209 175 -229 16 -14
20 -13 49 12 l32 27 -48 61 c-26 33 -60 78 -77 100 -16 21 -39 51 -51 65 l-21
27 -32 -25z"/>
<path d="M3610 3795 c-21 -23 -25 -24 -46 -11 -20 14 -24 13 -43 -8 -20 -21
-20 -23 -4 -39 16 -16 14 -21 -47 -82 -63 -63 -65 -67 -65 -116 0 -47 3 -54
39 -85 47 -41 63 -42 78 -8 11 24 10 29 -10 42 -35 23 -27 53 33 112 l55 54
28 -27 28 -27 22 22 22 22 -27 28 -27 28 29 30 29 30 -30 30 c-16 16 -32 30
-35 30 -3 0 -16 -11 -29 -25z"/>
<path d="M1355 3740 l-29 -30 -28 27 -28 27 -32 -32 -32 -32 27 -28 c25 -26
26 -29 10 -45 -16 -16 -15 -18 7 -42 22 -23 25 -24 41 -9 17 15 21 13 68 -27
28 -24 51 -47 51 -50 0 -16 70 -39 99 -33 32 7 101 73 101 98 0 8 -13 19 -29
24 -26 9 -32 8 -46 -14 -8 -13 -22 -24 -30 -24 -8 0 -41 24 -72 54 l-58 55 27
28 26 28 -22 28 -22 27 -29 -30z"/>
<path d="M3732 3540 c-19 -31 -15 -47 17 -66 45 -27 65 -88 41 -124 -9 -13
-14 -10 -36 15 -14 17 -32 42 -41 57 -9 14 -33 34 -54 43 -36 17 -39 16 -75
-1 -44 -22 -59 -59 -44 -114 11 -40 52 -84 89 -95 21 -6 22 -9 8 -17 -18 -9
-15 -21 15 -62 13 -17 19 -15 99 37 102 66 128 93 136 140 7 45 -35 125 -91
173 -46 40 -47 40 -64 14z m-42 -176 c37 -43 36 -68 -4 -72 -52 -6 -98 62 -64
96 19 19 34 14 68 -24z"/>
<path d="M1170 3502 c-49 -24 -71 -47 -85 -93 -8 -28 -11 -57 -8 -65 5 -13 1
-15 -14 -10 -16 5 -25 -1 -41 -28 l-21 -35 26 -16 c13 -9 75 -47 137 -84 l112
-68 23 40 c19 32 20 41 10 48 -8 5 -43 26 -78 46 -76 45 -96 71 -87 115 14 71
59 77 150 20 107 -68 102 -66 125 -28 12 18 21 36 21 39 0 4 -43 32 -95 62
-93 55 -145 72 -175 57z"/>
<path d="M982 3120 c-41 -25 -70 -72 -78 -128 -21 -142 136 -240 254 -158 64
44 100 156 71 220 -11 24 -13 24 -39 11 -25 -13 -28 -20 -27 -64 1 -58 -20
-96 -59 -105 -14 -4 -28 -5 -30 -4 -3 4 47 182 61 219 13 34 -102 40 -153 9z
m78 -66 c0 -7 -29 -124 -36 -143 -3 -11 -10 -9 -29 9 -34 32 -34 82 0 115 21
22 65 35 65 19z"/>
<path d="M3736 2993 c7 -42 27 -63 59 -63 36 0 51 -23 64 -95 7 -38 15 -80 17
-91 5 -17 -3 -26 -34 -44 l-40 -22 0 -77 c0 -42 -2 -82 -4 -90 -2 -12 19 -17
95 -27 112 -13 140 -30 140 -85 0 -55 -32 -72 -122 -64 -42 3 -88 8 -102 11
-24 5 -27 2 -32 -38 -3 -23 -4 -44 -3 -45 6 -6 154 -22 205 -23 47 0 57 4 86
33 43 43 54 96 33 154 -15 41 -15 43 3 43 15 0 19 8 19 39 0 46 7 43 -169 62
l-114 13 29 23 c16 13 72 52 124 88 129 88 183 126 193 135 5 4 6 28 2 53 l-7
46 -97 22 c-53 12 -145 34 -206 50 -146 38 -148 38 -139 -8z m289 -112 l70
-17 -74 -47 c-40 -27 -74 -47 -76 -45 -3 4 -25 106 -25 118 0 13 22 11 105 -9z"/>
<path d="M716 2764 c-10 -26 -7 -69 6 -82 20 -20 56 -14 74 13 14 21 14 30 4
55 -10 25 -18 30 -45 30 -21 0 -35 -6 -39 -16z"/>
<path d="M855 2719 c-4 -22 -5 -43 -2 -45 2 -3 63 -9 133 -15 71 -5 141 -11
156 -14 24 -4 27 -1 33 36 4 22 5 43 2 45 -5 5 -253 33 -294 34 -17 0 -23 -8
-28 -41z"/>
<path d="M1073 2576 c-17 -36 -16 -37 6 -52 19 -13 22 -23 19 -66 -3 -48 -5
-52 -41 -71 -44 -23 -78 -17 -113 18 -29 29 -31 73 -5 107 20 24 20 25 -5 54
l-24 29 -30 -33 c-27 -29 -30 -39 -30 -95 0 -54 5 -71 30 -109 36 -54 76 -73
147 -72 89 2 153 75 153 172 0 45 -36 120 -67 140 -21 13 -23 12 -40 -22z"/>
<path d="M1033 2235 l-36 -36 6 -98 c7 -114 -2 -138 -47 -127 -34 8 -56 57
-56 125 0 52 -8 61 -56 61 -22 0 -24 -4 -24 -48 0 -165 113 -276 217 -212 49
29 56 52 50 149 -6 99 3 134 35 129 39 -6 62 -52 66 -132 4 -73 4 -74 34 -80
46 -9 51 -1 46 78 -9 127 -78 226 -160 226 -33 0 -47 -7 -75 -35z"/>
<path d="M3746 2179 c-31 -36 -40 -66 -34 -114 3 -27 0 -35 -12 -35 -16 0 -40
-38 -40 -64 0 -16 190 -86 234 -86 72 0 135 89 136 190 l0 56 -34 -4 c-31 -4
-34 -7 -34 -37 0 -70 -28 -115 -73 -115 l-27 0 24 70 c40 115 17 170 -72 170
-35 0 -47 -5 -68 -31z m88 -65 c20 -19 20 -24 0 -74 -18 -44 -28 -48 -56 -23
-22 20 -23 56 -2 88 19 29 36 31 58 9z"/>
<path d="M3600 1878 c-11 -18 -20 -35 -20 -38 0 -5 164 -111 184 -119 5 -2 50
-30 100 -62 l90 -58 22 37 c15 27 18 40 10 48 -12 13 -235 154 -242 154 -3 0
-28 16 -57 35 -28 19 -55 35 -60 35 -4 0 -16 -15 -27 -32z"/>
<path d="M3458 1864 c-77 -55 -76 -117 4 -284 30 -63 67 -143 83 -178 l28 -63
29 27 c15 15 28 32 28 37 0 5 -22 54 -50 108 -34 68 -45 99 -35 99 8 0 58 -16
111 -35 l98 -35 33 32 c23 22 29 34 21 39 -7 4 -84 30 -171 59 -134 45 -158
57 -163 76 -7 28 0 41 36 63 27 16 27 18 15 49 -8 18 -18 32 -22 32 -5 0 -25
-12 -45 -26z"/>
<path d="M1296 1760 c-44 -38 -85 -79 -92 -92 -33 -59 1 -151 78 -207 51 -38
63 -39 81 -4 14 26 13 28 -28 55 -47 31 -67 70 -54 106 5 12 11 22 15 22 3 0
26 -22 50 -49 68 -75 126 -89 174 -41 24 24 26 79 5 120 -18 35 -66 70 -96 70
-20 0 -21 1 -6 18 14 16 13 19 -8 45 -13 15 -28 27 -32 27 -4 -1 -44 -32 -87
-70z m124 -65 c49 -25 54 -95 7 -95 -16 0 -35 14 -55 39 l-32 40 22 15 c27 19
23 19 58 1z"/>
<path d="M1559 1564 c-5 -15 -8 -27 -7 -28 56 -22 60 -59 13 -116 -19 -23 -39
-50 -44 -59 -9 -14 -13 -12 -41 14 l-31 30 -19 -25 c-25 -32 -25 -35 5 -58 30
-24 30 -25 3 -62 -12 -16 -20 -31 -17 -32 2 -2 19 -13 37 -26 l32 -23 23 27
c21 24 26 25 46 14 25 -13 26 -12 52 33 7 13 6 19 -6 23 -24 10 -18 27 35 93
42 52 50 69 50 103 0 34 -7 47 -39 79 -46 46 -77 50 -92 13z"/>
<path d="M3301 1533 c-24 -9 -66 -37 -92 -62 -43 -42 -49 -52 -49 -88 0 -34 6
-46 31 -67 17 -14 37 -26 46 -26 8 0 46 14 84 30 72 32 89 32 89 0 0 -22 -39
-55 -86 -72 -35 -12 -44 -37 -25 -67 8 -12 14 -12 43 -1 94 38 148 97 148 162
0 76 -71 98 -169 53 -30 -14 -61 -23 -68 -21 -39 15 19 79 88 97 44 12 46 13
40 43 -8 37 -21 40 -80 19z"/>
<path d="M1730 1348 c-61 -126 -63 -160 -17 -211 34 -39 117 -77 167 -77 28 0
30 3 30 35 0 30 -3 35 -24 35 -63 0 -128 54 -113 94 5 13 14 12 61 -10 86 -39
116 -41 154 -9 25 21 32 35 32 62 0 48 -13 68 -66 99 -33 20 -53 25 -78 21
-28 -4 -33 -3 -29 12 3 12 -7 22 -32 34 l-36 17 -49 -102z m186 -33 c20 -20
23 -28 14 -45 -14 -25 -40 -25 -91 0 -33 18 -38 23 -29 39 20 38 71 41 106 6z"/>
<path d="M2980 1354 c-19 -8 -42 -22 -52 -31 -18 -16 -17 -17 3 -39 20 -21 24
-22 43 -9 40 29 55 19 92 -59 19 -41 34 -77 34 -80 0 -2 -16 -10 -35 -16 -19
-6 -35 -13 -35 -14 0 -10 23 -66 26 -66 3 0 18 7 35 15 35 18 42 15 58 -24
l13 -29 39 17 c44 18 45 21 24 62 -15 28 -15 30 10 39 25 9 25 11 10 40 -17
33 -19 34 -45 20 -15 -8 -20 -4 -30 23 -34 90 -64 137 -95 152 -40 18 -50 18
-95 -1z"/>
<path d="M2149 1264 c-90 -27 -148 -124 -135 -228 12 -109 86 -164 254 -190
131 -20 132 -20 132 7 0 12 14 102 32 200 17 97 29 179 26 182 -7 7 -217 45
-242 44 -12 0 -42 -7 -67 -15z m151 -75 c59 -13 58 -9 33 -166 l-17 -105 -50
6 c-28 4 -70 16 -93 27 -98 47 -94 180 8 231 40 21 51 22 119 7z"/>
<path d="M2670 1260 c-11 -11 -20 -29 -20 -40 0 -21 33 -60 51 -60 41 0 76 49
58 83 -23 42 -57 49 -89 17z"/>
</g>
</svg>
